 http://img692.imageshack.us/img692/2749/battlegroundjgp.jpg

Country.......: Canada
Genre.........: Horror
Date release..: 2012 [World]
Director......: Neil Mackay
Writers.......: Neil Mackay, Sean McAulay
Duration......: 85 min.
More..........: http://www.imdb.com/title/tt1754506
Trailer.......:

Pilot :
The history of war veteran who once fought in Vietnam. A man unable to endure the antics of several criminals, he decides to take matters into their own hands.

Cats :
Bryan Larkin   	 ...  	Mitch
Bob Cymbalski 	... 	Texas
Hugh Lambe 	... 	The Hunter
Damon E. White 	... 	Crowley
Robert Nolan 	... 	Logan
Lee Sandford 	... 	Heather
Mark Munro 	... 	Kowalski
Frank Ieraci 	... 	Dom 

Data Technical :
!!! SAMPLE !!!
Audio.....: English
Subtitles.: None
Format                           : AVI
Format/Info                      : Audio Video Interleave
File size                        : 701 MiB
Duration                         : 1h 25mn
Overall bit rate                 : 1 148 Kbps
Writing application              : VirtualDubMod 1.5.4.1 (build 2178/release)
Writing library                  : VirtualDubMod build 2178/release
Video
ID                               : 0
Format                           : MPEG-4 Visual
Format profile                   : Advanced Simple@L5
Format settings, BVOP            : Yes
Format settings, QPel            : No
Format settings, GMC             : No warppoints
Format settings, Matrix          : Custom
Codec ID                         : XVID
Codec ID/Hint                    : XviD
Duration                         : 1h 25mn
Bit rate                         : 1 018 Kbps
Width                            : 720 pixels
Height                           : 304 pixels
Display aspect ratio             : 2.35:1
Frame rate                       : 25.000 fps
Color space                      : YUV
Chroma subsampling               : 4:2:0
Bit depth                        : 8 bits
Scan type                        : Progressive
Bits/(Pixel*Frame)               : 0.186
Stream size                      : 622 MiB (89%)
Writing library                  : XviD 1.2.1 (UTC 2008-12-04)
Audio
ID                               : 1
Format                           : MPEG Audio
Format version                   : Version 1
Format profile                   : Layer 3
Mode                             : Joint stereo
Mode extension                   : MS Stereo
Codec ID                         : 55
Codec ID/Hint                    : MP3
Duration                         : 1h 25mn
Bit rate mode                    : Variable
Bit rate                         : 117 Kbps
Channel(s)                       : 2 channels
Sampling rate                    : 48.0 KHz
Stream size                      : 71.2 MiB (10%)
Alignment                        : Aligned on interleaves
Interleave, duration             : 24 ms (0.60 video frame)
Interleave, preload duration     : 531 ms
Writing library                  : LAME3.98.2

Screen : 
http://img708.imageshack.us/img708/8163/battleground2012s1.jpg 
http://img718.imageshack.us/img718/7282/battleground2012s2.jpg 
http://img713.imageshack.us/img713/2537/battleground2012s3.jpg 
http://img689.imageshack.us/img689/3662/battleground2012s4.jpg 
http://img42.imageshack.us/img42/553/battleground2012s5.jpg